<svg width="32" height="32" viewBox="0 0 32 32" fill="none" xmlns="http://www.w3.org/2000/svg">
<path d="M16.1093 30.6627C16.4453 30.6627 16.7178 30.9321 16.7178 31.2644C16.7178 31.5968 16.4453 31.8662 16.1093 31.8662C15.7733 31.8662 15.5009 31.5968 15.5009 31.2644C15.5009 30.9321 15.7733 30.6627 16.1093 30.6627ZM15.4483 1.91664C15.7457 1.94119 15.9858 2.1665 16.026 2.4586L16.7497 7.71667C16.9928 9.45382 19.0879 10.2065 20.3812 9.02605L27.6319 2.42664C27.8068 2.26745 28.0792 2.27848 28.2403 2.45128C28.3881 2.60982 28.3926 2.85254 28.2506 3.01626L21.928 10.3096C20.764 11.6499 21.6228 13.7427 23.3972 13.8922L28.9759 14.43C29.2538 14.4567 29.457 14.7009 29.4299 14.9755C29.4076 15.2019 29.2332 15.3848 29.0057 15.4202L23.1437 16.3356C21.4417 16.5676 20.671 18.583 21.778 19.8924L23.8388 22.3219C24.0048 22.5176 23.9788 22.8093 23.7807 22.9733C23.6129 23.1123 23.3699 23.1177 23.1958 22.9863L20.6554 21.0677C19.2845 20.0367 17.3084 20.913 17.1635 22.6193L16.6037 29.2737C16.5805 29.5486 16.3363 29.7529 16.0581 29.73C15.822 29.7107 15.6312 29.5318 15.5992 29.2999L14.7114 22.8719C14.4735 21.1347 12.3784 20.3821 11.0799 21.5626L3.36662 28.5859C3.20696 28.7313 2.95825 28.7212 2.8111 28.5635C2.6761 28.4188 2.672 28.1972 2.80155 28.0477L9.53318 20.279C10.6972 18.9388 9.84352 16.8458 8.06912 16.6964L2.48914 16.1585C2.2113 16.1318 2.00804 15.8875 2.03515 15.613C2.0575 15.3866 2.23188 15.2038 2.45928 15.1682L8.31744 14.2531C10.0195 14.0211 10.7954 12.0056 9.68838 10.6962L8.2855 9.04237C8.07962 8.79968 8.11187 8.43802 8.35757 8.23462C8.56576 8.06221 8.8672 8.05562 9.08294 8.21869L10.8057 9.5209C12.1766 10.5519 14.1527 9.67558 14.2976 7.96934L14.761 2.49096C14.7903 2.14484 15.098 1.88771 15.4483 1.91664ZM0.608429 14.998C0.944454 14.998 1.21686 15.2675 1.21686 15.5998C1.21686 15.9322 0.944454 16.2016 0.608429 16.2016C0.272403 16.2016 0 15.9322 0 15.5998C0 15.2675 0.272403 14.998 0.608429 14.998ZM31.1235 14.387C31.4595 14.387 31.7319 14.6564 31.7319 14.9888C31.7319 15.3212 31.4595 15.5905 31.1235 15.5905C30.7875 15.5905 30.515 15.3212 30.515 14.9888C30.515 14.6564 30.7875 14.387 31.1235 14.387ZM15.3605 0C15.6965 0 15.9689 0.269423 15.9689 0.601773C15.9689 0.934125 15.6965 1.20355 15.3605 1.20355C15.0244 1.20355 14.7521 0.934125 14.7521 0.601773C14.7521 0.269423 15.0244 0 15.3605 0Z" fill="url(#paint0_linear)"/>
<path d="M15.7254 20.9787C18.8996 20.9787 21.4728 18.4337 21.4728 15.2943C21.4728 12.1549 18.8996 9.60986 15.7254 9.60986C12.5513 9.60986 9.97812 12.1549 9.97812 15.2943C9.97812 18.4337 12.5513 20.9787 15.7254 20.9787Z" fill="url(#paint1_radial)"/>
<defs>
<linearGradient id="paint0_linear" x1="4.14614" y1="5.0688" x2="22.3428" y2="21.542" gradientUnits="userSpaceOnUse">
<stop stop-color="#FFC10B"/>
<stop offset="1" stop-color="#FB3F2E"/>
</linearGradient>
<radialGradient id="paint1_radial" cx="0" cy="0" r="1" gradientUnits="userSpaceOnUse" gradientTransform="translate(14.4129 13.1957) rotate(67.5196) scale(8.35584 8.43706)">
<stop stop-color="#FFC10B"/>
<stop offset="1" stop-color="#FB3F2E"/>
</radialGradient>
</defs>
</svg>
